<svg xmlns="http://www.w3.org/2000/svg"
shape-rendering="geometricPrecision"
width="4000" height="4000" viewBox="0 0 1024 1024">
  <metadata>null</metadata>

<path d="
M 269.69 411.842
C 277.749 411.432 285.925 411.739 293.999 411.727
C 309.168 411.705 324.337 411.677 339.506 411.666
C 352.673 411.656 365.84 411.634 379.007 411.612
C 386.822 411.598 394.765 411.29 402.564 411.77
C 406.627 418.596 412.077 424.809 416.922 431.088
C 418.25 432.809 419.554 434.556 420.927 436.24
C 421.286 436.679 422.467 437.802 422.528 438.34
C 412.539 438.633 402.497 438.291 392.5 438.298
C 370.666 438.314 348.832 438.287 326.999 438.281
C 318.499 438.279 309.999 438.321 301.499 438.3
C 299.23 438.295 296.963 438.31 294.695 438.323
C 293.795 438.328 292.704 438.53 291.902 438.043
C 287.104 432.313 282.399 426.518 277.523 420.846
C 274.965 417.87 271.967 415.006 269.69 411.842 Z"
opacity="1" fill="rgb(3,125,86)" fill-rule="evenodd" />
<path d="
M 357.671 475.3
C 378.251 474.794 398.911 475.185 419.503 475.2
C 426.17 475.205 432.837 475.197 439.504 475.229
C 442.249 475.243 445.88 474.627 448.517 475.329
C 450.091 478.581 453.06 481.364 455.227 484.242
C 459.768 490.273 464.316 496.757 469.484 502.244
C 469.442 502.315 468.539 502.275 468.489 502.275
C 467.158 502.279 465.83 502.28 464.498 502.263
C 459.168 502.195 453.832 502.261 448.501 502.26
C 432.668 502.256 416.835 502.256 401.002 502.248
C 396.168 502.245 391.335 502.238 386.501 502.245
C 384.428 502.248 381.738 502.742 379.762 502.131
C 376.391 499.449 373.737 495.005 371.037 491.646
C 366.684 486.231 361.504 481.062 357.671 475.3 Z"
opacity="1" fill="rgb(3,126,87)" fill-rule="evenodd" />
<path d="
M 378.09 312.29
C 385.517 311.772 393.061 312.087 400.507 312.062
C 414.392 312.015 428.278 312.042 442.164 312.005
C 485.106 311.888 528.06 311.93 571.008 311.909
C 581.332 311.904 591.691 311.691 602.009 311.994
C 611.775 312.28 621.358 311.987 630.976 314.129
C 648.293 317.985 664.242 326.854 676.876 339.269
C 706.648 368.525 712.12 417.376 693.225 453.743
C 686.641 466.414 676.301 477.353 664.7 485.544
C 653.757 493.271 641.035 498.63 627.846 501.011
C 618.632 502.675 609.318 502.257 600.002 502.254
C 587.168 502.251 574.334 502.248 561.5 502.267
C 552.334 502.28 543.167 502.282 534 502.275
C 531.333 502.273 528.666 502.258 525.999 502.259
C 524.643 502.26 522.997 502.562 521.709 502.107
C 519.527 499.789 517.902 496.865 515.963 494.341
C 511.35 488.332 506.716 482.321 502.229 476.218
C 491.325 461.385 479.283 447.357 468.551 432.399
C 472.773 431.822 477.241 432.211 481.504 432.227
C 489.17 432.255 496.837 432.23 504.504 432.215
C 529.005 432.167 553.507 432.169 578.009 432.127
C 586.099 432.113 594.189 432.143 602.278 432.073
C 606.67 432.035 611.545 432.442 615.855 431.478
C 619.303 430.706 622.811 429.162 625.657 427.073
C 641.329 415.569 637.379 390.72 619.635 383.589
C 613.871 381.273 607.537 381.733 601.443 381.748
C 592.462 381.77 583.481 381.726 574.501 381.731
C 541.667 381.747 508.833 381.76 475.999 381.776
C 466.166 381.781 456.332 381.748 446.499 381.757
C 443.665 381.76 440.832 381.753 437.998 381.742
C 436.764 381.737 435.061 382.062 433.92 381.56
C 431.147 378.96 428.862 375.13 426.571 372.087
C 421.805 365.759 416.715 359.563 411.656 353.464
C 403.168 343.228 394.457 333.171 386.255 322.701
C 383.537 319.232 380.6 315.916 378.09 312.29 Z"
opacity="1" fill="rgb(1,129,88)" fill-rule="evenodd" />

</svg>